<svg width="9" height="15" viewBox="0 0 9 15" fill="none" xmlns="http://www.w3.org/2000/svg">
<path d="M0 0.65344V9.93344C0 10.4506 0.39079 11.0158 0.871127 11.1935L7.65279 14.1421C7.74685 14.1768 7.84066 14.1948 7.92995 14.1948C8.27064 14.1948 8.49957 13.9322 8.49957 13.5414V4.26144C8.49957 3.74432 8.10878 3.17907 7.62851 3.00141L7.03022 2.74131C6.91685 2.83878 6.71432 3.08973 6.71432 3.64326V7.22726L5.55222 5.61126L4.69678 6.33126C4.69678 6.33126 4.68587 4.09926 4.69394 3.11526C4.69155 2.46592 4.82254 2.03808 5.03598 1.87424L0.846852 0.052672C0.752786 0.01792 0.658978 0 0.56969 0C0.228935 0 0 0.262592 0 0.65344Z" fill="#AF77B4"/>
</svg>
